<svg width="89" height="89" viewBox="0 0 89 89" fill="none" xmlns="http://www.w3.org/2000/svg">
<rect width="89" height="89" rx="4" fill="#757575"/>
<path d="M24.877 68.5C23.3559 68.5 22.1581 68.1796 21.2834 67.5389C20.4278 66.916 20 66.0528 20 64.9494C20 63.223 20.5514 61.4166 21.6542 59.53C22.757 57.6257 24.3541 55.8459 26.4456 54.1908C28.5371 52.5178 31.0564 51.1652 34.0036 50.1329C36.9697 49.0829 40.2971 48.5578 43.9857 48.5578C47.6934 48.5578 51.0208 49.0829 53.9679 50.1329C56.934 51.1652 59.4534 52.5178 61.5258 54.1908C63.6173 55.8459 65.2145 57.6257 66.3173 59.53C67.4391 61.4166 68 63.223 68 64.9494C68 66.0528 67.5627 66.916 66.6881 67.5389C65.8324 68.1796 64.6441 68.5 63.123 68.5H24.877ZM44.0143 43.7792C41.9798 43.7792 40.0974 43.2631 38.3672 42.2308C36.637 41.1808 35.2395 39.7748 34.1747 38.0128C33.1289 36.233 32.6061 34.2397 32.6061 32.0328C32.6061 29.8615 33.1289 27.9038 34.1747 26.1596C35.2395 24.4155 36.637 23.0362 38.3672 22.0217C40.0974 21.0072 41.9798 20.5 44.0143 20.5C46.0487 20.5 47.9311 20.9983 49.6613 21.995C51.3916 22.9917 52.7796 24.3621 53.8253 26.1062C54.8901 27.8326 55.4225 29.7903 55.4225 31.9794C55.4225 34.2041 54.8901 36.2063 53.8253 37.9861C52.7796 39.7659 51.3916 41.1808 49.6613 42.2308C47.9311 43.2631 46.0487 43.7792 44.0143 43.7792Z" fill="#171717"/>
</svg>
